<svg xmlns="http://www.w3.org/2000/svg" width="40" height="40" viewBox="1000 1000 2000 2000">
  <metadata><?xpacket begin="﻿" id="W5M0MpCehiHzreSzNTczkc9d"?>
<x:xmpmeta xmlns:x="adobe:ns:meta/" x:xmptk="Adobe XMP Core 5.6-c138 79.159824, 2016/09/14-01:09:01        ">
   <rdf:RDF xmlns:rdf="http://www.w3.org/1999/02/22-rdf-syntax-ns#">
      <rdf:Description rdf:about=""/>
   </rdf:RDF>
</x:xmpmeta>
                                                                                                    
                                                                                                    
                                                                                                    
                                                                                                    
                                                                                                    
                                                                                                    
                                                                                                    
                                                                                                    
                                                                                                    
                                                                                                    
                                                                                                    
                                                                                                    
                                                                                                    
                                                                                                    
                                                                                                    
                                                                                                    
                                                                                                    
                                                                                                    
                                                                                                    
                                                                                                    
                           
<?xpacket end="w"?></metadata>
<defs>
    <style>
      .cls-1, .cls-2, .cls-3, .cls-4, .cls-5, .cls-6 {
        fill-rule: evenodd;
      }

      .cls-1 {
        opacity: 0.2;
      }

      .cls-2, .cls-3, .cls-4, .cls-5, .cls-6 {
        fill: #fff;
      }

      .cls-2 {
        opacity: 0.3;
      }

      .cls-3 {
        opacity: 0.4;
      }

      .cls-4 {
        opacity: 0.5;
      }

      .cls-5 {
        opacity: 0.75;
      }
    </style>
  </defs>
  <path id="r" class="cls-1" d="M1931.34,1821.38q90.51-145.455,261.43-145.47,103.755,1.035,186.16,47.81,71.205,40.695,71.2,104.77a94.993,94.993,0,0,1-21.87,61.55q-21.87,26.94-63.07,26.95t-68.15-20.85q-26.955-20.85-47.3-65.6-26.46-54.945-54.94-73.25-35.6-27.48-79.34-20.35-62.055,7.125-124.11,102.74-60.015,95.625-60.01,220.75v409.95q0,215.67,139.35,218.7v34.6H1549.87v-34.6q137.31-6.09,137.32-218.7V1921.07q0-174.96-137.32-153.61v-34.58l354-56.97q27.465,34.59,27.47,145.47h0Z"/>
  <path id="k" class="cls-2" d="M1770.1,2248.61l364.17-359.07q82.41-81.375,67.14-120.05-15.255-39.66-84.42-36.61v-34.59h457.77v34.59q-221.775,0-366.22,152.58l-125.13,125.12,317.4,517.78q102.72,170.91,219.71,160.72v34.6H2067.15v-34.6q55.92-6.09,80.36-46.78,26.43-40.68-38.66-143.44L1905.4,2184.54l-135.3,130.2v157.67q1.005,214.635,147.5,216.67v34.6H1379.48v-34.6q145.455-3.045,145.47-216.67V1428.71q0-175.98-145.47-149.53v-35.61l390.62-59V2248.61Z"/>
  <path id="r-2" data-name="r" class="cls-3" d="M1931.34,1821.38q90.51-145.455,261.43-145.47,103.755,1.035,186.16,47.81,71.205,40.695,71.2,104.77a94.993,94.993,0,0,1-21.87,61.55q-21.87,26.94-63.07,26.95t-68.15-20.85q-26.955-20.85-47.3-65.6-26.46-54.945-54.94-73.25-35.6-27.48-79.34-20.35-62.055,7.125-124.11,102.74-60.015,95.625-60.01,220.75v409.95q0,215.67,139.35,218.7v34.6H1549.87v-34.6q137.31-6.09,137.32-218.7V1921.07q0-174.96-137.32-153.61v-34.58l354-56.97q27.465,34.59,27.47,145.47h0Z"/>
  <path id="a" class="cls-4" d="M2304.17,1832.57q42.69,83.415,41.7,219.72v510.67q0,94.59,50.86,109.86,57.975,12.21,139.36-40.69l16.28,31.53q-113.955,76.32-222.78,76.3-205.5,0-217.69-151.58-39.675,64.1-126.14,112.92-83.415,46.785-201.42,45.77-131.235-5.085-219.72-81.38-86.49-77.3-86.47-208.53,0-211.59,236-292.97,393.675-138.33,390.63-312.3-2.04-132.225-204.47-132.25-82.41,0-118,33.58-11.2,10.17-44.75,93.58-17.3,42.75-41.72,68.16-22.38,25.455-53.91,31.53-33.585,8.16-67.14-14.24-28.5-21.345-34.59-61.03-5.085-56.955,61.04-110.89,108.855-88.5,299.07-90.53,322.455,0,403.86,162.77h0Zm-437.43,359.09q-75.27,35.6-110.87,102.73-35.625,66.15-34.59,150.55,3.045,83.445,44.76,147.52,43.74,64.08,127.16,63.06,101.715,0,155.64-99.69,55.92-100.71,55.94-255.33V2037.04q-56.985,64.065-238.04,154.62h0Z"/>
  <path id="b" class="cls-5" d="M1820.46,2648.39q-66.135-51.855-128.17-21.35-60.03,29.505-81.39,133.26h-37.63V1427.69q0-175.965-141.4-149.53v-34.59l384.51-60.02v613.41q129.195-121.035,295.02-121.05,204.465,0,331.62,139.36,125.115,133.26,125.11,385.53,0,246.195-137.33,396.74-135.3,150.555-333.65,151.57-140.4,0-276.69-100.72h0Zm93.58-857.54q-62.07,35.625-97.66,80.37v545.25q2.04,113.94,69.19,189.21,70.17,69.18,147.5,75.28,123.075,6.09,205.48-131.24,81.375-135.27,80.36-342.81,0-205.47-71.2-328.58-74.28-125.1-204.47-124.09-65.1,0-129.2,36.61h0Z"/>
  <path id="C" class="cls-6" d="M2435.9,1287.32q136.3,46.8,141.4-44.77h40.69l26.44,432.34-40.69,4.07q-99.7-401.82-492.34-401.82-219.75,1.035-363.16,217.69-137.34,207.525-137.33,503.55,0,692.76,526.94,692.75,360.09,0,509.64-290.94l38.66,11.19q-144.48,334.68-561.54,334.67-249.225,0-430.29-98.67-174.99-95.625-278.72-271.61-101.745-172.92-101.74-377.39,0-212.61,96.64-388.59,96.645-173.955,283.82-280.77t424.2-106.81q126.12,0,317.38,65.11h0Z"/>
</svg>
